<svg xmlns="http://www.w3.org/2000/svg" viewBox="0 0 543.79 397.37"><defs><style>.cls-1{fill:#1faae3;}.cls-2{fill:#e21e84;}.cls-3{fill:#f8ab22;}</style></defs><g id="Layer_2" data-name="Layer 2"><g id="Layer_1-2" data-name="Layer 1"><path d="M543.79,268.91c-.33,1.58-.64,3.17-1,4.75-3.41,15.58-17.27,28-32.82,29.23-9.19.71-17-2.79-23.86-8.63-2.62-2.23-5.11-4.6-7.62-6.87-1.35,2.4-2.8,5.47-4.7,8.23a62.68,62.68,0,0,1-7.29,9.07c-10.17,10-23.65,8.8-32.14-2.68-5.56-7.51-8-16.32-10.26-25.2-.47-1.83-.84-3.68-1.4-6.19-1.19,4.48-2.16,8.37-3.26,12.22-2.79,9.85-5.93,19.61-11.33,28.37A55.15,55.15,0,0,1,399,322.89c-12.54,11.6-31.25,8.65-40.08-6-4.41-7.35-6.31-15.55-7.57-23.89-3.21-21.31-3.23-42.76-2.34-64.22.65-15.46,1.85-30.91,2.11-46.38.2-12-.48-24.07-1.11-36.09-.61-11.74-1.39-23.49-2.56-35.19-2.49-25-6.19-49.73-16.24-73-3.83-8.87-8.75-17.06-15.76-23.86a46.72,46.72,0,0,0-21.57-12c-.44-.11-.88-.18-1.31-.33-.12,0-.18-.28-.67-1.09,3.49.52,6.55.78,9.52,1.45,13.73,3.13,23.68,11.63,31.74,22.69,10.17,14,16.24,29.8,21,46.19a352.51,352.51,0,0,1,11.49,58.75c1.77,15.27,3.71,30.55,4.63,45.88.75,12.45.25,25,0,37.48-.34,21.28-.19,42.56,2,63.75.77,7.51,2.53,14.95,4.2,22.34.62,2.74,1.12,6.59,4.71,6.87,3.29.25,4.48-3.28,5.94-5.65a83.85,83.85,0,0,0,10.18-25.61c4.33-18.84,8.12-37.8,12.08-56.73,1.51-7.25,2.74-14.57,4.41-21.78A16.17,16.17,0,0,1,417,190c3.63-4.38,7.44-3.84,9.42,1.45A43.91,43.91,0,0,1,429.17,203a313.24,313.24,0,0,0,14.31,69.7A55.75,55.75,0,0,0,448.11,283c.78,1.36,3,3.08,4.09,2.8,1.41-.37,2.73-2.41,3.41-4,2.55-6,2.62-12.41,1.85-18.71-1.37-11.2-3.35-22.33-4.74-33.54-.46-3.71,0-7.55.24-11.32a8.46,8.46,0,0,1,1.36-3.51c2.1-3.56,5.15-4.45,8.76-2.44,5.77,3.21,9.11,8.45,11.25,14.46,3.62,10.2,5.42,20.8,6.49,31.54a6.2,6.2,0,0,0,.67,2.57c4,6.51,8.4,12.71,14.5,17.44a31.43,31.43,0,0,0,5.79,3.48c4.17,2,8,1.15,11.73-1.48,6.2-4.42,8-10.59,7.62-17.81a99.49,99.49,0,0,0-5.51-27.85c-3.58-10.43-7.5-20.74-11.62-31-1.69-4.2-1.32-7.54,1.47-11s5.5-4.39,9.5-2.51a26.63,26.63,0,0,1,12.22,12c8.25,15.44,14,31.74,16.23,49.17a7.55,7.55,0,0,0,.37,1.29Z"/><path d="M253.56,176.46a62.86,62.86,0,0,1,7.43.11c.74.09,1.73,1.38,1.93,2.27,3.33,14.44,6.24,29,9.89,43.33s8.33,28.12,15.25,41.11a83.11,83.11,0,0,0,10.14,15c5.25,6.14,9.23,5.72,15.05.14,7.46-7.16,9.4-15.86,8.46-25.77-1.81-19-8.06-36.84-14.72-54.55a48.28,48.28,0,0,1-2.61-7.68c-.3-1.59.39-3.41.86-5.06.2-.73,1-1.29,1.42-2,2.92-4.33,5.16-4.9,9.68-2,6.53,4.19,11,10.27,14.22,17.14,7.31,15.56,12.42,31.85,14.25,49,1.27,11.84.88,23.62-5.45,34.24a54.24,54.24,0,0,1-16.13,17.41c-12.68,8.6-26.83,7.22-38-3.79-8.14-8-13-18-17-28.44-1.52-4-2.79-8-4.31-12.43-.56,1-1,1.85-1.43,2.67-3.59,6.89-8.75,11.71-16.81,12.65a17.65,17.65,0,0,1-12.88-3.23c-4.57-3.47-8.58-7.69-12.78-11.63a26,26,0,0,1-2.27-2.86c-.94,3.72-1.74,7.09-2.63,10.45-4.72,17.71-12.86,33.56-25.63,46.87-10.58,11-23,18.69-38.43,20.69a58.51,58.51,0,0,1-32-5c-18.95-8.54-32.73-22.74-43.14-40.34-3.71-6.27-6.43-13.13-9.56-19.74a32.7,32.7,0,0,1-1.18-3.66c3.92,0,7.43.27,10.87-.08,4-.4,6,1.08,7.76,4.73,7.24,14.7,17.4,27.06,31.09,36.3,7.63,5.14,16,8.53,25.22,9.19,10.13.71,19.13-2.58,26.94-8.87,14-11.28,22.24-26.2,26.68-43.39,5-19.19,6-38.72,5-58.45a295.52,295.52,0,0,0-15.37-80.74c-6.15-18.07-13.89-35.38-26-50.39-5.54-6.87-11.88-13-19.75-17.17a30.39,30.39,0,0,0-7.82-3c-6.54-1.42-11.66,1.19-15.73,6.25-4.73,5.86-7.09,12.75-8.64,20-.67,3.09-1,6.27-1.71,9.33A38.7,38.7,0,0,1,101,93c-2,4.06-4.91,4.24-7.23.25a32.82,32.82,0,0,1-3.94-10c-2.94-15.06-.52-29.22,8.58-41.81,9.32-12.89,24.7-17.74,40.3-13.1,12.36,3.68,22.17,11.29,31,20.29C183,62.16,192,78.46,199.22,95.74c10.14,24.16,15.66,49.48,20,75.27,3.12,18.31,4.22,37.06,10.08,54.86a98.83,98.83,0,0,0,6.56,14.51c1.24,2.36,3.34,4.82,6.37,4.24s4-3.64,4.55-6.25c1.48-7.25,3.12-14.53,3.82-21.88,1.14-12,1.57-24,2.33-36C253.06,179.15,253.36,177.84,253.56,176.46Z"/><path class="cls-1" d="M458.29.69c-9.06,24.9-12.19,50-2.6,75.46,2.58-9.7,12.78-9.82,18.09-6.14,9.15,6.34,13.73,19.61,10.56,31.5-.79,2.93-2,5.75-2.82,8,5,.38,10.47.25,15.68,1.3,14,2.81,23.13,17.26,20.34,31.26a45.19,45.19,0,0,1-8.08,19.05c-8.08,10.62-21.94,12.29-32.41,4a43.26,43.26,0,0,1-12.32-15.62,15.94,15.94,0,0,0-.84-1.38c-2.37,2.76-4.38,5.67-6.93,8-10.51,9.52-22.68,13.7-36.78,10.29A25.89,25.89,0,0,1,401,136.5c.51-2.85,1.5-5.61,2.27-8.41l1,.14a44.72,44.72,0,0,0,1.15,6.27c1.23,3.75,2.28,7.69,4.28,11,4,6.67,10.44,9.2,18,7.29a25.5,25.5,0,0,0,16.7-12.48c2.74-4.87.61-9.39-4.88-10.31a3.44,3.44,0,0,0-2.8,1,43.33,43.33,0,0,0-4.32,6.52c-2.08,3.91-8.38,6.67-13.29,5.6a9.84,9.84,0,0,1-7.51-10c.19-9.9,5.41-17.15,13.3-22.35,10.65-7,23.24-5.25,33,4,.46.44.86.92,1.49,1.59l1.45-2.3c1.15,3.23,2.24,6.3,3.52,9.92l3.94-7.4c-4-2-8.23-3.78-12-6.18-11.59-7.39-18.65-18.26-21.47-31.46-5.68-26.6.46-50.72,16.76-72.33,1.77-2.34,3.92-4.38,5.9-6.56Zm10.07,131.68c3.87,5.81,7.68,11,12.92,15a20.19,20.19,0,0,0,5.41,3c4,1.39,7.07-.21,8.08-4.29a35.44,35.44,0,0,0,.91-8c0-2.39-1.26-4.28-3.85-4.4-2.75-.14-5.83-.6-8.22.4-3.89,1.63-7.34,1.2-11-.14C471.38,133.38,470.12,133,468.36,132.37Z"/><path class="cls-2" d="M233.44,268.4c-1.63,4-4,7.69-4.71,11.72-2.31,12.57,1.81,23.37,10.75,32.27a10.66,10.66,0,0,0,6,2.61c3.75.4,6.61-3.92,5.27-7.49-1.2-3.21-3.65-5.28-6.46-7.08a9.45,9.45,0,0,1-2.57-2.86c-1.08-1.66-2-3.44-2.93-5.18-1.72-3.14-2.9-6.39-.52-9.67a10.6,10.6,0,0,1,10.77-4.31c12.19,1.83,23.59,14.41,24.82,26.62,1.5,14.82-7.6,24.13-17.19,29-.61.31-1.24.6-1.26.61,4.12,3.4,8.56,6.63,12.5,10.39,10.12,9.66,13.24,27.44,7,40-3.78,7.54-9.83,12-18.65,12.31-17.29.61-26.88-11.12-29.37-25.46a67.63,67.63,0,0,1,4.52-39c.7-1.63.26-2.34-.9-3.35-13.76-11.93-17.5-36.22-8-51.47A23.2,23.2,0,0,1,233.44,268.4Zm5.44,92.86a37.61,37.61,0,0,0,6.38,13.22,9.43,9.43,0,0,0,7.57,3.58c2.31.08,3.3-1,3.31-3.23.05-7-2.49-12.62-8.12-16.1ZM233.39,332c.29,2.51.52,4.39.77,6.48,1.94-1.28,3.55-2.33,5.26-3.47Z"/><path class="cls-3" d="M274.22,89.63c0,1.05,0,1.9,0,2.75-.16,11.53.61,23,4.52,33.93a26.94,26.94,0,0,0,4.57,8.2,7,7,0,0,0,11.11-.18,7.31,7.31,0,0,0,1.11-5.24c-.7-4.58-3.1-8.39-6.34-11.73a9.46,9.46,0,0,1-1.91-3.65c-.54-1.62-.68-3.36-1.12-5-1-3.7-1.18-7.32,2.12-10,3.69-2.95,8-3.07,12-.91,9.43,5,14.84,13.28,17.52,23.39a28.88,28.88,0,0,1-2.07,21.35c-5.23,10.05-16.77,15.88-28,14.8-11.7-1.13-21.29-9.88-23.76-23.91-2.62-14.91.46-28.91,8.19-41.89a9.87,9.87,0,0,1,1.15-1.51C273.41,89.9,273.7,89.86,274.22,89.63Z"/><path class="cls-1" d="M149.38,235.91c-5.87,3.82-11.77,4.18-17.66-.35a2.51,2.51,0,0,0-2.13-.16c-9.19,4.09-18.87,3.83-28.54,3.08-1.9-.15-3.68-1.79-5.51-2.75l.18-.74a9.47,9.47,0,0,0-1.17.92c-3.47,3.75-7.88,3.59-12,2.15-4.45-1.52-6.71-5.25-7.27-9.94-1-7.86,3-13.94,7.3-19.85,2.17-3,4.75-5.69,7.18-8.49,1.46-1.68,3.32-2,5.07-.7,1.94,1.47,1.82,3.46.41,5.27-2.68,3.41-5.64,6.62-8.16,10.14-2.4,3.36-4.86,6.81-4.7,11.3.08,2.19.44,4.75,2.69,5.08a9.72,9.72,0,0,0,6.11-1.76c1.34-.88,2.06-2.87,2.79-4.49,1.3-2.88,2.31-5.88,3.59-8.77.88-2,2.33-3.32,4.73-2.55,1.81.59,2.6,2.85,1.8,5.34s-1.86,4.91-2.61,7.41c-1.2,4,.29,5.78,4.34,5.33a2.87,2.87,0,0,0,1.62-1c4.46-5.2,8.92-10.4,13.28-15.69a7,7,0,0,0,1.42-3.38c1.37-10,2.57-20.07,3.94-30.08A92.06,92.06,0,0,1,128,171.9c.63-2.59,2.35-3.76,4.45-3.28s3.07,2.45,2.64,5.14c-1.73,10.87-3.38,21.76-5.05,32.65a4.7,4.7,0,0,0,.16,1c1.08-.4,2.06-.79,3.05-1.13,5-1.73,9.14,1,9.42,6.41.34,6.53-1,12.58-5.51,17.63,3.89,2.43,8.06,1.13,9-3.07A124.63,124.63,0,0,0,148,214.13c.46-4.13.68-8.28,1.06-12.41a3.61,3.61,0,0,1,.65-2c.76-.79,1.82-1.86,2.68-1.8a3.33,3.33,0,0,1,2.33,2.16,35.92,35.92,0,0,1,.51,8.34c-.47,6-1.3,12-1.93,18-.21,2,0,4,2.18,4.72a3.49,3.49,0,0,0,4.57-2.41,40.36,40.36,0,0,0,1.56-10.31c0-5.23-.76-10.45-1.13-15.68-.15-2,.09-4,2.61-4.32s3.42,1.31,3.8,3.34c1.79,9.54,3.11,19.14.33,28.7A11.17,11.17,0,0,1,154,238.51C152.34,238.2,150.91,236.81,149.38,235.91Zm-33.21-5.49c6.52,1.05,14.68-2.7,17.79-8.15a16.6,16.6,0,0,0,1.62-5.36c.16-.95-.37-2-.59-3-1.08.26-2.35.24-3.2.83C125.7,218.9,120.76,224.26,116.17,230.42Z"/><path class="cls-1" d="M67.83,185.86c.79-1.8,1.27-3,1.84-4.22,6.73-13.91,15.9-25.74,29.57-33.43,16.66-9.38,33.54-9.29,50.15.06,14.61,8.23,24.41,21,32.29,35.47,1.83,3.35,3.44,6.82,5.16,10.23l-.74.42c-.54-.85-1.1-1.7-1.62-2.56-7.73-12.71-16.71-24.33-29-33-8.22-5.84-17.27-9.53-27.44-9.79-12-.3-22.21,4.29-31,12.3a65.09,65.09,0,0,0-15.49,22.06c-.81,1.83-1.8,2.63-3.85,2.53C74.62,185.74,71.49,185.86,67.83,185.86Z"/><path class="cls-1" d="M49.13,230.15c3.92-1.27,7.51-2.46,11.12-3.59a27.36,27.36,0,0,1,3.68-.88,3.27,3.27,0,0,1,4,2.41,2.91,2.91,0,0,1-1.77,4c-6.92,2.29-13.88,4.49-20.92,6.39-2.56.69-5.38.55-8.09.59-3.81,0-5.7-1.54-6.37-5.27a53.49,53.49,0,0,1-.68-6.19c-.12-1.92-1.09-2.85-2.94-2.74a11.51,11.51,0,0,0-3.7.65c-6.68,2.78-11.32,7.8-15.4,14.05,2.7.52,5.33,1,4.86,4.12a5.4,5.4,0,0,1-2.12,3.39c-2.28,1.49-7.2.82-9-.82S-.66,240.6.9,237.67A39.33,39.33,0,0,1,17,221.27,27.12,27.12,0,0,1,27.73,218c6.29-.44,9.89,3.37,10.24,9.67.1,1.93,0,4,2.87,4,.11-2-.34-4.29.43-6a37,37,0,0,1,5.56-9.11C49.11,214,52.11,212,55,209.88c2.41-1.77,4.64-1.45,5.92.5q1.77,2.69-2.15,5.32c-2.25,1.5-4.55,2.92-6.74,4.51C48.61,222.66,48.11,226,49.13,230.15Z"/><path class="cls-3" d="M238.68,44.09c2.86-14.62,5.71-29.14,18-39.25-2,2.8-4.23,5.46-5.93,8.44-4.14,7.24-5.95,15.28-7.38,23.41-.06.35-.07.72-.16,1.07-1.27,4.79-.71,8.35,3.76,12,8.18,6.65,8.94,16.88,3,24.41-3.64,4.62-7.95,4.09-10.08-1.35-2.2-5.6-1.91-11.52-1.9-17.39a22.28,22.28,0,0,0,.14-2.43c-.17-1.61,1.05-3.74-1.71-4.44-3-.76-5.68-.12-6.93,2.25a30.19,30.19,0,0,0-1.87,5.6c-.18.6,0,1.31-.28,1.87-.39.94-.95,1.8-1.43,2.7-.61-.9-1.66-1.76-1.73-2.69a22.13,22.13,0,0,1,.24-7C226,45.07,230.44,42.87,238.68,44.09Zm3.38,7.67c.26,7.25-.6,14.25,2.68,20.82C251.32,67.87,249.94,57,242.06,51.76Z"/><path class="cls-1" d="M21.63,195.69c-2.24,1.27-1.59,2.63-.7,4.17,2.26,3.91,2.07,5.13-1.12,8.26a22.75,22.75,0,0,1-4.06,3.57c-.94.55-2.38.27-3.59.36.27-1.2.27-2.56.88-3.55a12.94,12.94,0,0,1,2.8-2.54c2.3-2,2.5-3.62.74-6.09-.52-.73-1.14-1.41-1.6-2.18-1-1.77-1-3.49.69-4.84s3-.32,4.26.89C20.43,194.24,20.87,194.81,21.63,195.69Z"/><path class="cls-1" d="M92.3,260.66a4.86,4.86,0,0,1-4.46-5.18c.21-2.16,1.7-3,3.79-3,2.35,0,5.36,2.84,5.31,4.95C96.89,259.17,94.75,260.68,92.3,260.66Z"/></g></g></svg>